<svg width="30.000000" height="31.000000" viewBox="0 0 30 31" fill="none" xmlns="http://www.w3.org/2000/svg" xmlns:xlink="http://www.w3.org/1999/xlink">
	<desc>
			Created with Pixso.
	</desc>
	<defs/>
	<path id="Instagram" d="M14.34 10.53C13.15 10.53 12 11.01 11.15 11.85C10.31 12.7 9.83 13.85 9.83 15.05C9.83 16.24 10.31 17.39 11.15 18.24C12 19.08 13.15 19.56 14.34 19.56C15.54 19.56 16.69 19.08 17.54 18.24C18.38 17.39 18.86 16.24 18.86 15.05C18.86 13.85 18.38 12.7 17.54 11.85C16.69 11.01 15.54 10.53 14.34 10.53ZM14.34 7.52C16.34 7.52 18.25 8.31 19.67 9.72C21.08 11.14 21.87 13.05 21.87 15.05C21.87 17.04 21.08 18.95 19.67 20.37C18.25 21.78 16.34 22.57 14.34 22.57C12.35 22.57 10.43 21.78 9.02 20.37C7.61 18.95 6.82 17.04 6.82 15.05C6.82 13.05 7.61 11.14 9.02 9.72C10.43 8.31 12.35 7.52 14.34 7.52ZM24.13 7.14C24.13 7.64 23.93 8.12 23.58 8.47C23.22 8.83 22.75 9.03 22.25 9.03C21.75 9.03 21.27 8.83 20.92 8.47C20.56 8.12 20.36 7.64 20.36 7.14C20.36 6.64 20.56 6.17 20.92 5.81C21.27 5.46 21.75 5.26 22.25 5.26C22.75 5.26 23.22 5.46 23.58 5.81C23.93 6.17 24.13 6.64 24.13 7.14ZM14.34 3.01C10.62 3.01 10.01 3.02 8.28 3.09C7.1 3.15 6.31 3.31 5.58 3.59C4.92 3.84 4.45 4.15 3.95 4.65C3.48 5.11 3.12 5.66 2.89 6.28C2.6 7.01 2.45 7.8 2.39 8.98C2.31 10.64 2.3 11.22 2.3 15.05C2.3 18.77 2.32 19.38 2.39 21.11C2.45 22.29 2.61 23.08 2.89 23.81C3.15 24.47 3.45 24.94 3.95 25.44C4.45 25.94 4.93 26.25 5.57 26.5C6.32 26.78 7.11 26.94 8.28 27C9.94 27.08 10.52 27.09 14.34 27.09C18.07 27.09 18.68 27.07 20.41 27C21.59 26.94 22.38 26.78 23.11 26.5C23.76 26.25 24.24 25.94 24.74 25.44C25.25 24.94 25.55 24.46 25.8 23.82C26.08 23.08 26.24 22.28 26.3 21.11C26.38 19.45 26.38 18.87 26.38 15.05C26.38 11.32 26.37 10.71 26.3 8.98C26.24 7.8 26.08 7.01 25.8 6.28C25.57 5.66 25.21 5.11 24.74 4.65C24.29 4.18 23.73 3.82 23.11 3.59C22.38 3.3 21.59 3.15 20.41 3.09C18.75 3.01 18.17 3.01 14.34 3.01ZM14.34 0C18.43 0 18.94 0.01 20.55 0.09C22.15 0.16 23.24 0.41 24.2 0.79C25.2 1.17 26.03 1.69 26.87 2.52C27.63 3.27 28.23 4.18 28.6 5.19C28.98 6.15 29.23 7.24 29.3 8.84C29.38 10.45 29.39 10.96 29.39 15.05C29.39 19.13 29.38 19.64 29.3 21.25C29.23 22.85 28.98 23.94 28.6 24.9C28.23 25.91 27.64 26.82 26.87 27.57C26.12 28.33 25.21 28.93 24.2 29.3C23.24 29.68 22.15 29.93 20.55 30C18.94 30.08 18.43 30.1 14.34 30.1C10.26 30.1 9.75 30.08 8.14 30C6.54 29.93 5.45 29.68 4.49 29.3C3.48 28.93 2.57 28.34 1.82 27.57C1.05 26.82 0.46 25.91 0.08 24.9C-0.29 23.94 -0.54 22.85 -0.61 21.25C-0.69 19.64 -0.71 19.13 -0.71 15.05C-0.71 10.96 -0.69 10.45 -0.61 8.84C-0.54 7.24 -0.29 6.15 0.08 5.19C0.46 4.18 1.05 3.27 1.82 2.52C2.57 1.75 3.48 1.16 4.49 0.79C5.45 0.41 6.54 0.16 8.14 0.09C9.75 0.01 10.26 0 14.34 0Z" fill="#101010" fill-opacity="1.000000" fill-rule="nonzero"/>
</svg>
