<svg width="105.000000" height="50.000000" viewBox="0 0 105 50" fill="none" xmlns="http://www.w3.org/2000/svg" xmlns:xlink="http://www.w3.org/1999/xlink">
	<desc>
			Created with Pixso.
	</desc>
	<defs/>
	<path id="QPICK" d="M29.9 36.91Q30.51 36.47 31 35.87L29.2 33.72Q28.4 34.57 27.43 34.86Q26.91 35.02 26.35 35.02Q25.88 35.02 25.46 34.89Q25.27 34.82 25.08 34.73Q24.5 34.45 23.87 33.79Q25.53 33.26 26.81 32.25Q27.7 31.54 28.4 30.6Q29 29.8 29.39 28.91Q30.12 27.24 30.12 25.24Q30.12 23.41 29.48 21.83Q29.22 21.2 28.87 20.61Q28.36 19.77 27.7 19.08Q26.74 18.07 25.44 17.38Q25.19 17.24 24.94 17.12Q22.96 16.2 20.55 16.2Q18.16 16.2 16.19 17.1Q15.9 17.23 15.63 17.38Q14.31 18.08 13.33 19.12Q12.69 19.8 12.2 20.61Q11.87 21.16 11.63 21.75Q10.97 23.36 10.97 25.24Q10.97 27.06 11.59 28.63Q11.77 29.09 12.01 29.53Q12.46 30.38 13.07 31.09Q13.86 32 14.91 32.7Q15.21 32.9 15.53 33.07Q17.16 33.97 19.14 34.22Q21.17 36.34 22.75 37.18Q22.96 37.29 23.18 37.39Q24.58 38.02 26.27 38.02Q27.69 38.02 28.88 37.49Q28.91 37.48 28.93 37.47Q29.45 37.23 29.9 36.91ZM63.64 33.46Q65.53 34.29 67.79 34.29Q70.07 34.29 71.92 33.49Q73.02 33.02 73.9 32.29Q74.51 31.79 75.02 31.17L72.42 28.77Q71.43 29.93 70.18 30.44Q69.18 30.85 68.02 30.85Q66.57 30.85 65.39 30.27Q65.25 30.21 65.12 30.13Q64.47 29.77 63.96 29.25Q63.48 28.77 63.13 28.15Q63.07 28.03 63.01 27.91Q62.42 26.72 62.42 25.24Q62.42 23.79 62.99 22.61Q63.06 22.48 63.13 22.34Q63.49 21.7 64 21.2Q64.49 20.71 65.12 20.36Q65.25 20.28 65.39 20.22Q66.57 19.65 68.02 19.65Q69.21 19.65 70.22 20.06Q71.45 20.57 72.42 21.7L75.02 19.3Q74.54 18.72 73.97 18.25Q73.06 17.49 71.93 17Q70.1 16.2 67.82 16.2Q65.46 16.2 63.51 17.09Q63.23 17.21 62.95 17.36Q61.73 18.02 60.8 18.97Q60.09 19.69 59.55 20.59Q59.28 21.04 59.07 21.53Q58.32 23.22 58.32 25.24Q58.32 27.25 59.06 28.94Q59.27 29.44 59.55 29.91Q60.09 30.79 60.79 31.51Q61.72 32.47 62.95 33.13Q63.29 33.31 63.64 33.46ZM44.78 17.27Q43.07 16.5 40.74 16.5L33.17 16.5L33.17 34L37.22 34L37.22 29.17L40.74 29.17Q43.07 29.17 44.78 28.41Q46.13 27.81 46.98 26.8Q47.22 26.52 47.42 26.21Q47.55 26.01 47.66 25.79Q48.34 24.5 48.34 22.84Q48.34 21.09 47.59 19.77Q47.51 19.62 47.42 19.47Q47.24 19.2 47.04 18.95Q46.17 17.9 44.78 17.27ZM55.27 16.5L51.22 16.5L51.22 34L55.27 34L55.27 16.5ZM81.77 29.57L84.12 27.12L89.72 34L94.44 34L86.77 24.3L94.02 16.5L89.52 16.5L81.77 24.67L81.77 16.5L77.75 16.5L77.75 34L81.77 34L81.77 29.57ZM15.66 27.91Q15.07 26.72 15.07 25.24Q15.07 23.79 15.64 22.61Q15.71 22.48 15.78 22.34Q16.18 21.63 16.74 21.1Q17.19 20.67 17.75 20.36Q18.03 20.2 18.33 20.07Q19.35 19.65 20.55 19.65Q21.72 19.65 22.72 20.06Q23.04 20.19 23.34 20.36Q23.9 20.67 24.35 21.1Q24.91 21.63 25.31 22.34Q25.38 22.48 25.45 22.61Q26.02 23.79 26.02 25.24Q26.02 26.72 25.43 27.91Q25.37 28.03 25.31 28.15Q24.92 28.83 24.38 29.35Q23.92 29.8 23.34 30.13Q23.04 30.3 22.72 30.43Q21.72 30.85 20.55 30.85Q19.35 30.85 18.33 30.42Q18.03 30.29 17.75 30.13Q17.17 29.8 16.71 29.35Q16.17 28.83 15.78 28.15Q15.72 28.03 15.66 27.91ZM43.29 25.08Q42.34 25.87 40.52 25.87L37.22 25.87L37.22 19.79L40.52 19.79Q42.34 19.79 43.29 20.59Q43.55 20.8 43.73 21.06Q44.24 21.77 44.24 22.84Q44.24 23.88 43.75 24.58Q43.56 24.86 43.29 25.08Z" fill="#101010" fill-opacity="1.000000" fill-rule="evenodd"/>
</svg>
